<svg width="31" height="30" viewBox="0 0 31 30" fill="none" xmlns="http://www.w3.org/2000/svg">
<g clip-path="url(#clip0_17_331)">
<path d="M21.5906 10.3923C21.4605 10.0552 21.2611 9.74909 21.0055 9.4937C20.7498 9.23831 20.4435 9.0393 20.1062 8.9095C19.6419 8.73751 19.1514 8.6466 18.6562 8.64075C17.8328 8.60325 17.5859 8.59387 15.5 8.59387C13.4141 8.59387 13.1672 8.60325 12.3437 8.64075C11.8481 8.64642 11.357 8.73733 10.8922 8.9095C10.5551 9.03966 10.249 9.23899 9.99358 9.49465C9.73819 9.75031 9.53918 10.0566 9.40938 10.3939C9.23738 10.8582 9.14648 11.3487 9.14063 11.8439C9.10313 12.6673 9.09375 12.9142 9.09375 15.0001C9.09375 17.0861 9.10313 17.3329 9.14063 18.1564C9.1463 18.6521 9.23721 19.1431 9.40938 19.6079C9.53954 19.945 9.73887 20.2512 9.99452 20.5065C10.2502 20.7619 10.5565 20.9609 10.8937 21.0907C11.3581 21.2627 11.8486 21.3536 12.3437 21.3595C13.1672 21.397 13.4141 21.4064 15.5 21.4064C17.5859 21.4064 17.8328 21.397 18.6562 21.3595C19.1519 21.3538 19.643 21.2629 20.1078 21.0907C20.4449 20.9606 20.751 20.7613 21.0064 20.5056C21.2618 20.2499 21.4608 19.9436 21.5906 19.6064C21.7626 19.142 21.8535 18.6515 21.8594 18.1564C21.8969 17.3329 21.9062 17.0861 21.9062 15.0001C21.9062 12.9142 21.8969 12.6673 21.8594 11.8439C21.8537 11.3482 21.7628 10.8572 21.5906 10.3923ZM15.5 19.0126C14.7064 19.0126 13.9306 18.7773 13.2708 18.3364C12.6109 17.8955 12.0966 17.2688 11.7929 16.5356C11.4892 15.8025 11.4098 14.9957 11.5646 14.2173C11.7194 13.439 12.1016 12.724 12.6627 12.1629C13.2239 11.6017 13.9389 11.2195 14.7172 11.0647C15.4955 10.9099 16.3023 10.9894 17.0355 11.2931C17.7687 11.5968 18.3954 12.111 18.8363 12.7709C19.2772 13.4307 19.5125 14.2065 19.5125 15.0001C19.5125 16.0643 19.0898 17.0849 18.3373 17.8374C17.5848 18.5899 16.5642 19.0126 15.5 19.0126ZM19.6703 11.7673C19.4849 11.7673 19.3036 11.7123 19.1495 11.6093C18.9953 11.5063 18.8751 11.3599 18.8042 11.1886C18.7332 11.0173 18.7147 10.8288 18.7508 10.6469C18.787 10.4651 18.8763 10.298 19.0074 10.1669C19.1385 10.0358 19.3056 9.9465 19.4874 9.91032C19.6693 9.87415 19.8578 9.89272 20.0291 9.96367C20.2004 10.0346 20.3468 10.1548 20.4498 10.309C20.5528 10.4631 20.6078 10.6444 20.6078 10.8298C20.6078 11.0785 20.509 11.3169 20.3332 11.4927C20.1574 11.6685 19.919 11.7673 19.6703 11.7673Z" fill="white"/>
<path d="M15.5 17.6048C16.9385 17.6048 18.1046 16.4386 18.1046 15.0001C18.1046 13.5615 16.9385 12.3954 15.5 12.3954C14.0614 12.3954 12.8953 13.5615 12.8953 15.0001C12.8953 16.4386 14.0614 17.6048 15.5 17.6048Z" fill="white"/>
<path d="M15.5 0.00012207C12.5333 0.00012207 9.63319 0.879857 7.16645 2.52808C4.69972 4.1763 2.77713 6.51898 1.64181 9.25987C0.506499 12.0008 0.209449 15.0168 0.788228 17.9265C1.36701 20.8362 2.79562 23.5089 4.8934 25.6067C6.99119 27.7045 9.66394 29.1331 12.5737 29.7119C15.4834 30.2907 18.4994 29.9936 21.2403 28.8583C23.9811 27.723 26.3238 25.8004 27.972 23.3337C29.6203 20.8669 30.5 17.9668 30.5 15.0001C30.5 11.0219 28.9197 7.20657 26.1066 4.39352C23.2936 1.58047 19.4783 0.00012207 15.5 0.00012207ZM23.2656 18.222C23.2522 18.8698 23.1291 19.5106 22.9016 20.1173C22.7009 20.6362 22.3941 21.1074 22.0007 21.5008C21.6073 21.8942 21.1361 22.201 20.6172 22.4017C20.0105 22.6292 19.3697 22.7523 18.7219 22.7657C17.8875 22.8032 17.6219 22.8126 15.5 22.8126C13.3781 22.8126 13.1125 22.8032 12.2781 22.7657C11.6303 22.7523 10.9895 22.6292 10.3828 22.4017C9.86395 22.201 9.39272 21.8942 8.99934 21.5008C8.60596 21.1074 8.29911 20.6362 8.09844 20.1173C7.87088 19.5106 7.74779 18.8698 7.73438 18.222C7.69688 17.3876 7.68751 17.122 7.68751 15.0001C7.68751 12.8782 7.69688 12.6126 7.73438 11.7782C7.74779 11.1304 7.87088 10.4896 8.09844 9.88293C8.29911 9.36406 8.60596 8.89283 8.99934 8.49946C9.39272 8.10608 9.86395 7.79922 10.3828 7.59856C10.9895 7.371 11.6303 7.2479 12.2781 7.2345C13.1125 7.197 13.3781 7.18762 15.5 7.18762C17.6219 7.18762 17.8875 7.197 18.7219 7.2345C19.3697 7.2479 20.0105 7.371 20.6172 7.59856C21.1361 7.79922 21.6073 8.10608 22.0007 8.49946C22.3941 8.89283 22.7009 9.36406 22.9016 9.88293C23.1291 10.4896 23.2522 11.1304 23.2656 11.7782C23.3031 12.6126 23.3125 12.8782 23.3125 15.0001C23.3125 17.122 23.3031 17.3876 23.2656 18.222Z" fill="white"/>
</g>
<defs>
<clipPath id="clip0_17_331">
<rect width="30" height="30" fill="white" transform="translate(0.5 0.00012207)"/>
</clipPath>
</defs>
</svg>
