<svg width="31" height="30" viewBox="0 0 31 30" fill="none" xmlns="http://www.w3.org/2000/svg">
<g clip-path="url(#clip0_17_329)">
<path d="M15.5 5.16808e-08C12.6322 5.16808e-08 9.82875 0.879734 7.44424 2.52796C5.05972 4.17618 3.20122 6.51885 2.10375 9.25975C1.00628 12.0006 0.719134 15.0166 1.27862 17.9263C1.83811 20.8361 3.2191 23.5088 5.24696 25.6066C7.27482 27.7044 9.85847 29.133 12.6712 29.7118C15.4839 30.2905 18.3994 29.9935 21.0489 28.8582C23.6984 27.7229 25.963 25.8003 27.5563 23.3335C29.1496 20.8668 30 17.9667 30 15C30.0002 13.0301 29.6252 11.0795 28.8966 9.25955C28.1679 7.43959 27.0999 5.78594 25.7534 4.39303C24.4069 3.00012 22.8084 1.89524 21.0491 1.14147C19.2898 0.387711 17.4042 -0.000163468 15.5 5.16808e-08ZM20.1103 22.7287C20.056 22.8687 19.9734 22.9951 19.8681 23.0993C19.7627 23.2036 19.6371 23.2834 19.4995 23.3333C19.3619 23.3833 19.2156 23.4022 19.0703 23.3888C18.9251 23.3755 18.7843 23.3302 18.6574 23.2559L14.7211 20.0919L12.1948 22.503C12.1361 22.5478 12.0676 22.5766 11.9953 22.5868C11.9231 22.597 11.8496 22.5883 11.7815 22.5614L12.2658 18.0787L12.2813 18.0914L12.2912 18.0029C12.2912 18.0029 19.3745 11.3317 19.663 11.0474C19.9551 10.7639 19.8588 10.7024 19.8588 10.7024C19.8754 10.3566 19.3346 10.7024 19.3346 10.7024L9.9494 16.9485L6.04095 15.5715C6.04095 15.5715 5.44065 15.3487 5.3841 14.859C5.32465 14.373 6.06051 14.109 6.06051 14.109L21.6002 7.72273C21.6002 7.72273 22.8776 7.13395 22.8776 8.109L20.1103 22.7287Z" fill="white"/>
</g>
<defs>
<clipPath id="clip0_17_329">
<rect width="30" height="30" fill="white" transform="translate(0.5 0.00012207)"/>
</clipPath>
</defs>
</svg>
