<svg width="31" height="30" viewBox="0 0 31 30" fill="none" xmlns="http://www.w3.org/2000/svg">
<g clip-path="url(#clip0_17_335)">
<path d="M30.2656 15.0516C30.2656 23.1414 23.707 29.7001 15.6172 29.7001C7.52732 29.7001 0.96875 23.1414 0.96875 15.0516C0.96875 6.96177 7.52732 0.403198 15.6172 0.403198C23.707 0.403198 30.2656 6.96177 30.2656 15.0516Z" fill="white"/>
<path fill-rule="evenodd" clip-rule="evenodd" d="M15.0639 21.4763H16.2139C16.2139 21.4763 16.5607 21.4384 16.7379 21.2468C16.9008 21.0712 16.896 20.7419 16.896 20.7419C16.896 20.7419 16.873 19.1992 17.5896 18.9722C18.296 18.7478 19.2012 20.4627 20.1625 21.1219C20.8893 21.6217 21.4413 21.512 21.4413 21.512L24.0092 21.4764C24.0092 21.4764 25.3531 21.3935 24.7156 20.3368C24.6632 20.2498 24.3445 19.555 22.8056 18.127C21.1953 16.6326 21.4107 16.8736 23.3513 14.2879C24.5332 12.7133 25.005 11.7521 24.8583 11.3401C24.7168 10.9474 23.8485 11.052 23.8485 11.052L20.9555 11.0698C20.9555 11.0698 20.7414 11.0405 20.582 11.1349C20.4264 11.2279 20.3269 11.446 20.3269 11.446C20.3269 11.446 19.8692 12.665 19.2585 13.7C17.9708 15.8881 17.4557 16.0028 17.2453 15.8677C16.7558 15.5502 16.8781 14.5954 16.8781 13.9171C16.8781 11.7977 17.1994 10.9141 16.252 10.6861C15.9384 10.6097 15.7064 10.5597 14.9032 10.5522C13.8704 10.5407 12.997 10.5549 12.5023 10.797C12.1734 10.9577 11.9197 11.3174 12.074 11.3376C12.2652 11.363 12.6987 11.455 12.9282 11.7674C13.224 12.1702 13.2138 13.0752 13.2138 13.0752C13.2138 13.0752 13.3846 15.5706 12.816 15.8804C12.4258 16.0936 11.8916 15.6585 10.7428 13.6745C10.1551 12.6585 9.71134 11.5353 9.71134 11.5353C9.71134 11.5353 9.62591 11.3261 9.47292 11.2137C9.28677 11.0773 9.02796 11.0342 9.02796 11.0342L6.28021 11.0519C6.28021 11.0519 5.86724 11.0633 5.71554 11.2432C5.58165 11.4024 5.70552 11.7328 5.70552 11.7328C5.70552 11.7328 7.85632 16.7665 10.2928 19.3028C12.5266 21.6293 15.0639 21.4763 15.0639 21.4763Z" fill="#83132C"/>
</g>
<defs>
<clipPath id="clip0_17_335">
<rect width="30" height="30" fill="white" transform="translate(0.5 0.00012207)"/>
</clipPath>
</defs>
</svg>
