<svg width="31" height="30" viewBox="0 0 31 30" fill="none" xmlns="http://www.w3.org/2000/svg">
<g clip-path="url(#clip0_17_326)">
<path d="M15.5038 0.00012207H15.4963C7.22565 0.00012207 0.50002 6.72762 0.50002 15.0001C0.494884 18.1595 1.49499 21.2386 3.35564 23.792L1.48627 29.3645L7.25189 27.5214C9.69759 29.1439 12.5688 30.0064 15.5038 30.0001C23.7744 30.0001 30.5 23.2707 30.5 15.0001C30.5 6.7295 23.7744 0.00012207 15.5038 0.00012207Z" fill="white"/>
<path d="M24.2319 21.182C23.87 22.2038 22.4338 23.0513 21.2882 23.2988C20.5044 23.4657 19.4807 23.5988 16.0344 22.1701C11.6263 20.3438 8.78753 15.8645 8.56628 15.5738C8.35441 15.2832 6.78503 13.202 6.78503 11.0495C6.78503 8.89697 7.87816 7.84884 8.31878 7.39884C8.68066 7.02947 9.27878 6.86072 9.85253 6.86072C10.0382 6.86072 10.205 6.87009 10.355 6.87759C10.7957 6.89634 11.0169 6.92259 11.3075 7.61822C11.6694 8.49009 12.5507 10.6426 12.6557 10.8638C12.7625 11.0851 12.8694 11.3851 12.7194 11.6757C12.5788 11.9757 12.455 12.1088 12.2338 12.3638C12.0125 12.6188 11.8025 12.8138 11.5813 13.0876C11.3788 13.3257 11.15 13.5807 11.405 14.0213C11.66 14.4526 12.5413 15.8907 13.8388 17.0457C15.5132 18.5363 16.8707 19.0126 17.3563 19.2151C17.7182 19.3651 18.1494 19.3295 18.4138 19.0482C18.7494 18.6863 19.1638 18.0863 19.5857 17.4957C19.8857 17.072 20.2644 17.0195 20.6619 17.1695C21.0669 17.3101 23.21 18.3695 23.6507 18.5888C24.0913 18.8101 24.3819 18.9151 24.4888 19.1007C24.5938 19.2863 24.5938 20.1582 24.2319 21.182Z" fill="#83132C"/>
</g>
<defs>
<clipPath id="clip0_17_326">
<rect width="30" height="30" fill="white" transform="translate(0.5 0.00012207)"/>
</clipPath>
</defs>
</svg>
