<svg width="251" height="111" viewBox="0 0 251 111" fill="none" xmlns="http://www.w3.org/2000/svg">
<path d="M163.099 28.4186C161.963 24.4705 160.136 20.8768 157.938 17.4655C155.674 13.9509 152.786 10.9755 149.493 8.39321C143.193 3.4521 136.01 0.749175 128.069 0.117031C123.419 -0.253596 118.808 0.261352 114.329 1.59088C109.569 3.00411 105.198 5.20998 101.273 8.28757C93.3526 14.4993 88.4448 22.5521 86.5876 32.4251C86.0178 35.453 85.7291 38.5214 86.0028 41.6382C86.221 44.1293 86.5432 46.5909 87.1378 49.0127C87.8184 51.7837 88.8426 54.4289 90.1191 56.9846C91.5647 59.8798 93.3301 62.5117 95.3813 64.9063C95.9118 63.6553 96.8032 62.6433 97.6698 61.5493C98.4001 60.6257 98.5057 59.8561 98.4896 58.9665C98.2223 59.2817 97.9757 59.2459 97.6282 58.7356C95.1965 55.1702 93.4167 51.3074 92.4139 47.1116C91.6212 43.7962 91.47 40.4109 91.6495 37.0175C91.8158 33.8597 92.4993 30.7919 93.572 27.8252C94.7168 24.6569 96.3489 21.7352 98.3822 19.0502C101.122 15.4346 104.472 12.5036 108.382 10.1979C112.218 7.93657 116.365 6.51352 120.744 5.92352C124.308 5.44321 127.906 5.51364 131.475 6.2012C134.612 6.80564 137.629 7.768 140.456 9.22453C146.859 12.5221 151.81 17.3189 155.194 23.7165C156.846 26.8414 157.997 30.1413 158.582 33.6022C159.096 36.6469 159.263 39.7337 158.893 42.8367C158.786 43.7327 158.507 43.9786 157.645 43.974C151.906 43.944 146.166 43.9538 140.427 43.9607C137.693 43.9636 134.96 43.9994 132.227 44C129.405 44 126.582 43.9798 123.76 43.9567C123.222 43.9521 122.891 44.1333 122.676 44.6673C122.135 46.013 121.559 47.3466 120.944 48.6605C120.618 49.3579 120.825 49.5698 121.529 49.5565C122.954 49.5305 124.379 49.5097 125.803 49.4866C128.594 49.441 131.387 49.5426 134.178 49.5519C138.728 49.5669 143.279 49.5559 147.829 49.5559C149.732 49.5559 151.636 49.5559 153.538 49.5559C156.513 49.5553 159.486 49.5559 162.461 49.5513C162.905 49.5507 163.41 49.5981 163.532 49.0034C164.011 46.6498 164.511 44.2927 164.621 41.8882C164.83 37.3218 164.371 32.8407 163.099 28.4186Z" fill="white"/>
<path d="M16.1481 102.775H7.65694L11.9447 92.7051L16.1481 102.775ZM9.42699 88.5837L0 110.545H4.56599L6.70899 105.512L17.1249 105.543L19.3008 110.545H23.8974L14.4704 88.5837H9.42699Z" fill="white"/>
<path d="M30.0387 91.5797H39.7451C41.163 91.5797 43.541 92.03 43.541 95.0505C43.541 97.612 41.4961 98.5212 39.7451 98.5212H30.0387V91.5797ZM40.7929 101.225C44.0236 101.161 47.2837 99.0662 47.2837 94.5303C47.2837 90.6237 44.4779 88.2914 39.778 88.2914H26.2307V110.545H30.0387V101.225H35.0036L43.0577 110.545H47.7086L39.427 101.225H40.7929Z" fill="white"/>
<path d="M51.5912 110.545H55.6913V88.4861H51.5912V110.545Z" fill="white"/>
<path d="M77.3433 102.584C77.3433 105.54 74.5341 108.036 71.2088 108.036C68.134 108.036 64.815 105.952 64.815 102.584V88.4861H60.7478V102.162C60.7478 106.368 64.3687 110.837 71.0789 110.837C77.7896 110.837 81.4105 106.368 81.4105 102.162V88.4861H77.3433V102.584Z" fill="white"/>
<path d="M98.2714 98.456C93.9577 97.9179 89.8835 97.4099 89.8835 94.7901C89.8835 91.4816 94.9449 91.1248 97.1214 91.1248C102.24 91.1248 104.523 92.5155 104.523 95.6347V96.0613H108.682L108.687 95.6399C108.71 93.6505 108.112 92.0242 106.909 90.8079C105.062 88.9397 101.861 88.0311 97.1214 88.0311C89.8789 88.0311 85.556 90.4973 85.556 94.6279C85.556 99.987 91.6882 100.663 97.0988 101.259C101.017 101.691 104.717 102.099 104.717 104.273C104.717 106.905 100.861 107.842 97.2512 107.842C93.8393 107.842 91.6166 107.272 90.4557 106.102C89.7987 105.44 89.484 104.588 89.4933 103.498L89.4973 103.068H85.0687V103.494C85.0687 106.297 86.6517 111 97.2512 111C103.072 111 108.947 108.93 108.947 104.306C108.947 99.7884 103.275 99.0806 98.2714 98.456Z" fill="white"/>
<path d="M125.594 110.545H141.612V107.55H129.401V101.062H140.573V98.4238H129.401V91.5793H141.612V88.3239H125.594V110.545Z" fill="white"/>
<path d="M157.532 98.456C153.218 97.9179 149.143 97.4099 149.143 94.7901C149.143 91.4816 154.205 91.1248 156.381 91.1248C161.5 91.1248 163.782 92.5155 163.782 95.6347V96.0613H167.942L167.947 95.6399C167.971 93.6505 167.372 92.0248 166.17 90.8079C164.323 88.9397 161.121 88.0311 156.381 88.0311C149.139 88.0311 144.816 90.4973 144.816 94.6279C144.816 99.987 150.948 100.663 156.359 101.259C160.277 101.691 163.977 102.099 163.977 104.273C163.977 106.905 160.12 107.842 156.512 107.842C153.1 107.842 150.878 107.272 149.716 106.102C149.059 105.44 148.745 104.588 148.754 103.498L148.757 103.068H144.329V103.494C144.329 106.297 145.911 111 156.512 111C162.333 111 168.207 108.93 168.207 104.306C168.207 99.7884 162.535 99.0806 157.532 98.456Z" fill="white"/>
<path d="M191.522 88.3239H169.429V91.7092H178.555V110.545H182.363V91.7092H191.522V88.3239Z" fill="white"/>
<path d="M204.743 102.775H196.252L200.539 92.7051L204.743 102.775ZM198.021 88.5837L188.594 110.545H193.16L195.303 105.512L205.719 105.543L207.895 110.545H212.491L203.064 88.5837H198.021Z" fill="white"/>
<path d="M209.499 91.7092H218.626V110.545H222.432V91.7092H231.592V88.3239H209.499V91.7092Z" fill="white"/>
<path d="M250.522 91.5797V88.3238H234.503V110.545H250.522V107.55H238.311V101.062H249.482V98.4236H238.311V91.5797H250.522Z" fill="white"/>
<path d="M154.529 63.6402C154.315 63.2852 154.114 62.9226 153.903 62.5653C152.687 60.5084 151.471 58.452 150.255 56.3951C150.248 56.3801 150.254 56.3657 150.246 56.3512L148.586 53.4728C148.488 53.3025 148.306 53.198 148.11 53.198H147.649C147.619 53.1969 147.596 53.187 147.564 53.1876C145.989 53.2159 144.413 53.2009 142.836 53.1969C142.17 53.1951 141.959 53.381 142.349 54.0397C143.982 56.794 145.594 59.5616 147.193 62.3355C148.4 64.4305 148.623 63.9589 146.653 65.554C141.971 69.348 136.662 71.7144 130.698 72.7137C125.519 73.5813 120.469 73.1784 115.475 71.678C110.773 70.2653 106.615 67.8892 102.919 64.6586C102.227 64.053 102.238 63.6062 102.661 62.8938C106.204 56.9303 109.724 50.9529 113.246 44.9772C117.069 38.4895 120.891 32.0013 124.7 25.5049C125.041 24.9241 125.208 24.7128 125.646 25.4679C128.243 29.9593 130.892 34.4207 133.498 38.9063C133.792 39.4126 134.13 39.6095 134.705 39.598C136.191 39.5668 137.679 39.5951 139.166 39.5818C139.479 39.5789 139.906 39.7394 140.078 39.4323C140.243 39.1384 139.928 38.8296 139.768 38.5542C137.344 34.4074 134.915 30.2636 132.49 26.1174C130.245 22.2789 128.01 18.4347 125.755 14.602C125.229 13.7072 125.146 13.7222 124.636 14.5893C121.017 20.7497 117.4 26.9112 113.778 33.0704C113.688 33.2234 111.543 36.88 107.233 44.1817C104.414 48.9589 100.276 55.9575 95.1211 64.6199C95.2804 64.8052 95.5114 65.0702 95.7948 65.3843C98.3789 68.2465 100.696 70.0731 101.209 70.4732C104.671 73.1743 108.483 75.2422 112.661 76.6532C115.657 77.6652 118.714 78.411 121.853 78.6143C127.986 79.0114 133.977 78.3423 139.753 76.0187C145.364 73.7615 150.193 70.431 154.3 66.0245C155.32 64.9311 155.288 64.9039 154.529 63.6402Z" fill="white"/>
</svg>
