<svg width="340" height="79" viewBox="0 0 340 79" fill="none" xmlns="http://www.w3.org/2000/svg">
<path d="M77.1083 28.3847C75.9735 24.4413 74.149 20.8519 71.9538 17.4447C69.6923 13.9342 66.808 10.9624 63.5189 8.3832C57.2262 3.44797 50.0523 0.748268 42.1208 0.116877C37.4755 -0.253309 32.8705 0.261026 28.3965 1.58897C23.6422 3.00051 19.2765 5.20376 15.3566 8.27768C7.44528 14.482 2.54336 22.5252 0.688351 32.3864C0.11922 35.4108 -0.169095 38.4755 0.104227 41.5886C0.322192 44.0767 0.643953 46.5354 1.23788 48.9543C1.91772 51.722 2.94066 54.364 4.21559 56.9167C5.65946 59.8084 7.42279 62.4372 9.47155 64.829C10.0015 63.5795 10.8918 62.5687 11.7573 61.476C12.4867 60.5534 12.5923 59.7848 12.5761 58.8962C12.3091 59.211 12.0629 59.1753 11.7158 58.6656C9.28703 55.1044 7.50929 51.2463 6.50769 47.0555C5.71598 43.744 5.5649 40.3627 5.74423 36.9734C5.9103 33.8193 6.59303 30.7552 7.6644 27.792C8.80785 24.6275 10.438 21.7093 12.4689 19.0275C15.205 15.4161 18.5517 12.4887 22.4566 10.1857C26.2878 7.9271 30.4303 6.50575 34.804 5.91645C38.3635 5.43671 41.9576 5.50705 45.5218 6.1938C48.6552 6.79751 51.6686 7.75873 54.4929 9.21352C60.8877 12.5071 65.8335 17.2982 69.2131 23.6882C70.8634 26.8094 72.0126 30.1054 72.5967 33.5621C73.1105 36.6032 73.2772 39.6864 72.9075 42.7856C72.8003 43.6806 72.5224 43.9262 71.6615 43.9216C65.9286 43.8916 60.1958 43.9014 54.4635 43.9083C51.7332 43.9112 49.0034 43.9469 46.2731 43.9475C43.4545 43.9475 40.6354 43.9273 37.8169 43.9043C37.2794 43.8997 36.9485 44.0807 36.7339 44.6141C36.1936 45.9582 35.6182 47.2901 35.0041 48.6025C34.6783 49.2991 34.8847 49.5107 35.5882 49.4974C37.0113 49.4715 38.435 49.4507 39.857 49.4277C42.6444 49.3821 45.4341 49.4836 48.2221 49.4928C52.7671 49.5078 57.3121 49.4968 61.8565 49.4968C63.7576 49.4968 65.6588 49.4968 67.5593 49.4968C70.5301 49.4963 73.5003 49.4968 76.4711 49.4922C76.9151 49.4917 77.4197 49.5389 77.5408 48.945C78.0199 46.5942 78.5187 44.2399 78.6288 41.8383C78.8376 37.2773 78.3792 32.8016 77.1083 28.3847Z" fill="white"/>
<path d="M105.905 49.8414H97.4241L101.707 39.783L105.905 49.8414ZM99.192 35.6665L89.7762 57.6014H94.3368L96.4772 52.5745L106.881 52.6057L109.054 57.6014H113.645L104.229 35.6665H99.192Z" fill="#83132C"/>
<path d="M119.779 38.6586H129.474C130.89 38.6586 133.265 39.1083 133.265 42.1252C133.265 44.6836 131.223 45.5917 129.474 45.5917H119.779V38.6586ZM130.521 48.292C133.747 48.228 137.004 46.1361 137.004 41.6056C137.004 37.7037 134.201 35.3742 129.507 35.3742H115.976V57.6014H119.779V48.292H124.738L132.783 57.6014H137.428L129.156 48.292H130.521Z" fill="#83132C"/>
<path d="M141.306 57.6014H145.401V35.5691H141.306V57.6014Z" fill="#83132C"/>
<path d="M167.027 49.6502C167.027 52.6019 164.222 55.0957 160.9 55.0957C157.829 55.0957 154.514 53.0136 154.514 49.6502V35.5687H150.452V49.2287C150.452 53.4293 154.068 57.8934 160.77 57.8934C167.473 57.8934 171.09 53.4293 171.09 49.2287V35.5687H167.027V49.6502Z" fill="#83132C"/>
<path d="M187.93 45.5268C183.622 44.9894 179.552 44.482 179.552 41.8653C179.552 38.5608 184.608 38.2044 186.782 38.2044C191.894 38.2044 194.174 39.5935 194.174 42.7089V43.135H198.328L198.333 42.7141C198.357 40.7271 197.759 39.1028 196.557 37.8878C194.713 36.0219 191.515 35.1143 186.782 35.1143C179.548 35.1143 175.23 37.5776 175.23 41.7033C175.23 47.056 181.355 47.7312 186.759 48.3268C190.672 48.7581 194.368 49.1658 194.368 51.3368C194.368 53.9655 190.516 54.9014 186.911 54.9014C183.504 54.9014 181.284 54.3328 180.124 53.164C179.468 52.5027 179.153 51.6516 179.163 50.5624L179.167 50.1334H174.743V50.5589C174.743 53.3584 176.325 58.056 186.911 58.056C192.726 58.056 198.593 55.9883 198.593 51.3696C198.593 46.8576 192.928 46.1507 187.93 45.5268Z" fill="#83132C"/>
<path d="M215.22 57.6014H231.22V54.61H219.023V48.13H230.181V45.4949H219.023V38.6586H231.22V35.407H215.22V57.6014Z" fill="white"/>
<path d="M247.12 45.5268C242.812 44.9894 238.742 44.482 238.742 41.8653C238.742 38.5608 243.798 38.2044 245.971 38.2044C251.084 38.2044 253.363 39.5935 253.363 42.7089V43.135H257.518L257.523 42.7141C257.547 40.7271 256.949 39.1033 255.748 37.8878C253.904 36.0219 250.705 35.1143 245.971 35.1143C238.738 35.1143 234.42 37.5776 234.42 41.7033C234.42 47.056 240.545 47.7312 245.949 48.3268C249.862 48.7581 253.558 49.1658 253.558 51.3368C253.558 53.9655 249.705 54.9014 246.101 54.9014C242.694 54.9014 240.474 54.3328 239.314 53.164C238.658 52.5027 238.344 51.6516 238.353 50.5624L238.356 50.1334H233.933V50.5589C233.933 53.3584 235.513 58.056 246.101 58.056C251.916 58.056 257.783 55.9883 257.783 51.3696C257.783 46.8576 252.117 46.1507 247.12 45.5268Z" fill="white"/>
<path d="M281.07 35.407H259.003V38.7883H268.119V57.6014H271.922V38.7883H281.07V35.407Z" fill="white"/>
<path d="M294.275 49.8414H285.794L290.077 39.783L294.275 49.8414ZM287.561 35.6665L278.146 57.6014H282.706L284.847 52.5745L295.25 52.6057L297.423 57.6014H302.014L292.599 35.6665H287.561Z" fill="white"/>
<path d="M299.025 38.7883H308.141V57.6014H311.944V38.7883H321.092V35.407H299.025V38.7883Z" fill="white"/>
<path d="M340 38.6586V35.4065H324V57.6014H340V54.6094H327.803V48.13H338.961V45.4943H327.803V38.6586H340Z" fill="white"/>
<path d="M68.5484 63.5643C68.335 63.2097 68.1338 62.8476 67.9233 62.4907C66.7089 60.4362 65.494 58.3823 64.2802 56.3278C64.2732 56.3128 64.279 56.2984 64.2703 56.284L62.6125 53.409C62.5145 53.2389 62.3335 53.1346 62.1374 53.1346H61.6767C61.6467 53.1334 61.6236 53.1236 61.5925 53.1242C60.0189 53.1524 58.4447 53.1374 56.8699 53.1334C56.2045 53.1317 55.994 53.3173 56.3832 53.9753C58.0139 56.7263 59.6239 59.4906 61.2211 62.2612C62.4269 64.3537 62.65 63.8826 60.6826 65.4758C56.0055 69.2653 50.7029 71.6288 44.7457 72.6269C39.5734 73.4936 34.529 73.0911 29.5412 71.5925C24.8446 70.1815 20.6923 67.8082 17.0007 64.5815C16.3087 63.9766 16.3203 63.5303 16.7429 62.8188C20.2811 56.8624 23.7974 50.8921 27.3148 44.9236C31.1333 38.4436 34.9511 31.9631 38.7557 25.4744C39.0959 24.8944 39.2631 24.6833 39.6997 25.4375C42.2945 29.9236 44.9395 34.3796 47.5429 38.8599C47.8365 39.3656 48.1744 39.5622 48.7481 39.5507C50.2323 39.5196 51.7183 39.5478 53.2037 39.5346C53.5168 39.5317 53.9429 39.692 54.1148 39.3852C54.2797 39.0917 53.9654 38.7832 53.8051 38.5082C51.3839 34.3664 48.958 30.2275 46.5362 26.0862C44.2937 22.2523 42.0609 18.4127 39.8086 14.5845C39.2833 13.6908 39.2003 13.7058 38.6917 14.5718C35.0763 20.7249 31.4637 26.8791 27.8465 33.0309C27.7565 33.1838 25.6138 36.836 21.3093 44.129C18.4936 48.9005 14.3603 55.8908 9.21161 64.5428C9.37076 64.7279 9.60141 64.9926 9.88453 65.3063C12.4655 68.1651 14.7795 69.9895 15.2927 70.3891C18.7502 73.0871 22.5577 75.1525 26.7307 76.5618C29.7234 77.5726 32.7767 78.3175 35.9118 78.5205C42.0373 78.9172 48.0215 78.2489 53.7901 75.9281C59.3944 73.6735 64.2179 70.347 68.32 65.9457C69.3383 64.8536 69.3072 64.8265 68.5484 63.5643Z" fill="#83132C"/>
</svg>
